PathFileType	4	(X/Y/Z)	C:/Users/opensim2020/Desktop/walking_exp_matlab/subject06_walking16_straight_04.trc	
DataRate	CameraRate	NumFrames	NumMarkers	Units	OrigDataRate	OrigDataStartFrame	OrigNumFrames	
100.00	100.00	6	51	mm	100.00	4097	352	
Frame#	Time	LFHD			RFHD			LBHD			RBHD			C7			T10			CLAV			STRN			RBAK			LSHO			LUPA			LELB			LFRM			LWRA			LWRB			LFIN			RSHO			RUPA			RELB			RFRM			RWRA			RWRB			RFIN			LASI			RASI			LPSI			RPSI			LTHI			LKNE			LTIB			LANK			LHEE			LTOE			RTHI			RKNE			RTIB			RANK			RHEE			RTOE			*39			*40			*41			*42			*43			*44			*45			*46			*47			*48			*49			*50			
		X1	Y1	Z1	X2	Y2	Z2	X3	Y3	Z3	X4	Y4	Z4	X5	Y5	Z5	X6	Y6	Z6	X7	Y7	Z7	X8	Y8	Z8	X9	Y9	Z9	X10	Y10	Z10	X11	Y11	Z11	X12	Y12	Z12	X13	Y13	Z13	X14	Y14	Z14	X15	Y15	Z15	X16	Y16	Z16	X17	Y17	Z17	X18	Y18	Z18	X19	Y19	Z19	X20	Y20	Z20	X21	Y21	Z21	X22	Y22	Z22	X23	Y23	Z23	X24	Y24	Z24	X25	Y25	Z25	X26	Y26	Z26	X27	Y27	Z27	X28	Y28	Z28	X29	Y29	Z29	X30	Y30	Z30	X31	Y31	Z31	X32	Y32	Z32	X33	Y33	Z33	X34	Y34	Z34	X35	Y35	Z35	X36	Y36	Z36	X37	Y37	Z37	X38	Y38	Z38	X39	Y39	Z39	X40	Y40	Z40	X41	Y41	Z41	X42	Y42	Z42	X43	Y43	Z43	X44	Y44	Z44	X45	Y45	Z45	X46	Y46	Z46	X47	Y47	Z47	X48	Y48	Z48	X49	Y49	Z49	X50	Y50	Z50	X51	Y51	Z51	

265	2.640	1535.38428	-383.05710	1671.37537	1403.99109	-370.82016	1658.97095	1548.89368	-251.30547	1613.36145	1419.87622	-241.05371	1606.32788	1489.90515	-248.23474	1456.88257	1475.45874	-219.14493	1126.78101	1480.67859	-358.09573	1380.74133	1481.04065	-400.66513	1206.05640	1408.80481	-174.20346	1286.76758	1646.05249	-316.23032	1408.52356	1718.25598	-325.82300	1205.28369	1730.09143	-326.29584	1093.16406	1747.49854	-362.29529	946.81915	1692.53894	-417.03296	834.34747	1744.11230	-368.41693	827.72864	1734.95032	-411.45334	748.09448	1322.66211	-307.09763	1414.39648	1233.81152	-270.64081	1215.52026	1221.63989	-282.90436	1094.16248	1201.44885	-294.57773	974.69794	1225.62415	-351.16772	833.15558	1188.39954	-295.23700	837.06714	1182.57239	-329.98056	760.11316	1571.23755	-411.52371	973.85144	1350.12537	-392.76855	975.19812	1554.03564	-249.62857	997.07288	1386.09998	-242.83661	992.87292	1633.89441	-353.65222	660.43347	1612.25818	-353.77020	496.08801	1596.97595	-334.94086	239.84509	1547.78699	-351.95059	68.32643	1501.31140	-314.36682	53.56131	1539.78748	-499.68948	44.37151	1291.84595	-373.19000	636.40759	1304.56567	-400.78946	512.35645	1318.39661	-219.44003	335.24921	1365.47229	-81.09542	212.89926	1414.55933	-40.01349	219.68523	1355.06140	-159.51834	79.08596	1485.32227	-276.42569	1706.01086																																	 
266	2.650	1535.76782	-389.76697	1671.75647	1404.47717	-377.21442	1659.19788	1549.78027	-257.93845	1614.13208	1420.75061	-247.40936	1606.89282	1491.09912	-254.54736	1457.35889	1476.72595	-224.75255	1127.35986	1481.50806	-364.09283	1381.18384	1482.02612	-406.40063	1206.44910	1410.16113	-179.91652	1287.39294	1646.88464	-323.05164	1409.06360	1719.46655	-336.07477	1206.10583	1731.73889	-338.61960	1094.04004	1749.27441	-377.49942	948.53229	1693.81250	-433.32504	836.83337	1746.26343	-385.69879	829.57629	1736.80432	-430.07303	750.72949	1323.63293	-312.61957	1414.88171	1235.03369	-275.57117	1216.09607	1222.75256	-287.48260	1094.70325	1202.56543	-299.16803	975.22290	1226.86279	-355.45065	833.59625	1189.74597	-299.56952	837.54260	1183.86853	-334.16391	760.54053	1572.81055	-416.68549	974.05731	1351.55908	-398.73816	976.09113	1554.74243	-254.72546	997.29413	1386.77087	-248.72551	993.59161	1634.35645	-357.28900	660.41193	1612.52905	-356.66547	496.08786	1596.98474	-336.21829	239.93742	1547.50244	-352.26382	68.44173	1501.07092	-314.51373	53.80669	1539.80762	-499.92502	44.09583	1292.68250	-383.04047	637.93359	1305.76440	-412.60522	514.43048	1318.89490	-234.53865	334.04752	1365.79724	-98.35582	208.91551	1414.74902	-56.64166	214.72804	1356.08179	-181.08025	78.23256	1485.89197	-283.16260	1706.62012																																	 
267	2.660	1536.17200	-396.47513	1672.13416	1404.87354	-383.63654	1659.38245	1550.43750	-264.64017	1614.88159	1421.62964	-253.66934	1607.48669	1492.10022	-260.30112	1457.93591	1477.87866	-230.34647	1127.99976	1482.38489	-370.12103	1381.64819	1483.06921	-412.15143	1206.85876	1411.51685	-185.67445	1288.03882	1647.67188	-329.67844	1409.67078	1720.57788	-346.03809	1207.05603	1733.29590	-350.78821	1095.07947	1750.73938	-392.49707	950.37378	1694.98914	-449.29825	839.48804	1747.94055	-402.87991	831.38940	1738.54224	-448.74127	753.70972	1324.60913	-318.27945	1415.32703	1236.09363	-280.24808	1216.60986	1223.78748	-292.06454	1095.18896	1203.70471	-303.52676	975.70239	1228.01416	-359.83722	834.04626	1191.03564	-303.85583	837.96906	1185.35034	-338.49258	760.86487	1574.49536	-421.62122	974.33380	1353.16577	-404.54919	976.88873	1555.41846	-259.69278	997.50397	1387.35791	-254.52350	994.33813	1634.76086	-361.02939	660.33948	1612.74487	-359.68668	496.06198	1596.93518	-337.66302	240.06383	1547.17786	-352.65259	68.55074	1500.74402	-314.69901	54.10805	1539.86719	-500.20737	43.84445	1293.58850	-393.04050	639.62555	1307.34753	-424.29926	516.56213	1319.52136	-249.68599	332.30173	1366.30090	-116.08361	204.19556	1415.08899	-73.86511	208.71942	1356.92432	-203.35477	76.84664	1486.46301	-289.88458	1707.22986																																	 
268	2.670	1536.46448	-403.17441	1672.45581	1405.26538	-390.06808	1659.47778	1551.04736	-271.34686	1615.62341	1422.42493	-259.93979	1608.05444	1493.23596	-266.39249	1458.53247	1478.95520	-235.91794	1128.51721	1483.16370	-376.00082	1382.01782	1484.07751	-417.77020	1207.18909	1412.71912	-191.37981	1288.61584	1648.46021	-336.16974	1410.25964	1721.62903	-355.65259	1208.03284	1734.68347	-362.65622	1096.21021	1752.12488	-407.33121	952.40918	1696.22449	-465.41190	842.40601	1750.00171	-420.10721	833.86871	1740.10266	-467.31119	756.93372	1325.54065	-323.94046	1415.74500	1237.18555	-285.18860	1217.13538	1224.79358	-296.60800	1095.66748	1204.82922	-307.91092	976.13641	1229.08936	-364.49979	834.57208	1192.23926	-308.25195	838.39856	1186.84216	-342.80063	761.14105	1575.87476	-425.52121	974.17639	1354.51111	-410.59213	977.81415	1556.01929	-264.67996	997.66571	1387.93237	-260.42606	995.03607	1635.24512	-364.82040	660.09576	1612.95886	-362.77292	496.06195	1597.01550	-339.10272	240.09698	1546.86060	-353.03214	68.64253	1500.12366	-315.47589	54.31525	1539.85754	-500.56009	43.55816	1294.48999	-402.72504	641.29834	1308.79993	-435.78333	518.75427	1320.37549	-265.05206	330.16251	1366.92834	-134.56001	198.75613	1415.37878	-91.72739	201.74199	1357.43347	-226.70319	75.44670	1486.93579	-296.55786	1707.79053																																	 
269	2.680	1536.73950	-409.83401	1672.79321	1405.54797	-396.29120	1659.55444	1551.71082	-277.90836	1616.34668	1423.13464	-266.14548	1608.50159	1494.18811	-272.65649	1458.91943	1480.08215	-241.44138	1129.04919	1483.97070	-381.80051	1382.34534	1485.12805	-423.42981	1207.49707	1413.81128	-197.06107	1289.15063	1649.18457	-342.39328	1410.82471	1722.66479	-364.93774	1209.13757	1736.02576	-374.26083	1097.47705	1753.40771	-421.91104	954.65894	1697.12720	-481.42938	845.38843	1751.40625	-437.00461	836.29895	1741.55151	-485.76038	760.49585	1326.38794	-329.77158	1416.07214	1238.17053	-290.17441	1217.60901	1225.83472	-301.22562	1096.05920	1205.87927	-312.54321	976.51886	1230.28003	-368.97308	834.89691	1193.42847	-312.64017	838.76880	1188.14673	-347.10486	761.40485	1577.48376	-430.36905	974.24811	1356.03992	-416.47372	978.62677	1556.54883	-269.58731	997.83093	1388.41138	-266.21506	995.79279	1635.76404	-368.49881	659.83417	1613.18579	-365.86829	496.05060	1596.90710	-340.57526	240.11801	1546.47815	-353.44589	68.66578	1500.55151	-314.37668	55.19417	1539.73279	-500.81467	43.31303	1295.14490	-411.90369	642.92700	1310.31616	-447.04605	520.91913	1321.40417	-280.42606	327.80478	1367.65137	-153.64186	192.74864	1416.27942	-110.22644	194.10350	1357.90637	-250.34163	73.34139	1487.40247	-303.23380	1708.32092																																	 
270	2.690	1536.98315	-416.42056	1673.12793	1405.86292	-402.59183	1659.64392	1552.41370	-284.42258	1617.05334	1423.89526	-272.34003	1608.98706	1495.06213	-278.25662	1459.49011	1481.05811	-246.87544	1129.60425	1484.80835	-387.80884	1382.71704	1486.13013	-428.96783	1207.77637	1414.91724	-202.69838	1289.73230	1649.94446	-348.67770	1411.49634	1723.59119	-373.81177	1210.26086	1737.24792	-385.56790	1098.82703	1754.62793	-436.25336	957.09064	1698.10352	-497.49911	848.86279	1753.13342	-453.88412	839.31018	1742.84106	-504.11035	764.32465	1327.26038	-335.60336	1416.32678	1239.21985	-295.31952	1218.05396	1226.82104	-305.94116	1096.42932	1207.10852	-316.68021	976.83459	1231.50610	-373.18216	835.12915	1194.62976	-317.01138	839.04224	1189.53088	-351.28342	761.54303	1578.99634	-435.16544	974.23730	1357.33435	-422.31216	979.43689	1557.05615	-274.53177	998.02826	1388.88745	-271.88568	996.50037	1636.40369	-372.01315	659.75012	1613.36841	-368.94574	496.05835	1596.85706	-341.83768	240.31047	1546.31763	-353.62469	68.76947	1500.36841	-314.83881	54.89858	1539.68945	-500.99973	43.12306	1296.36584	-421.71326	644.75726	1311.90527	-458.00031	523.09375	1322.40198	-295.87570	325.16132	1367.87146	-173.33344	186.17159	1417.29590	-129.76103	185.74715	1357.78516	-274.66696	71.21941	1487.81824	-309.82913	1708.82422																																	 
